%TF.GenerationSoftware,KiCad,Pcbnew,10.0.3-10.0.3~ubuntu24.04.1*%
%TF.CreationDate,2026-07-23T07:45:08+02:00*%
%TF.ProjectId,v4,76342e6b-6963-4616-945f-706362585858,rev?*%
%TF.SameCoordinates,Original*%
%TF.FileFunction,Legend,Bot*%
%TF.FilePolarity,Positive*%
%FSLAX46Y46*%
G04 Gerber Fmt 4.6, Leading zero omitted, Abs format (unit mm)*
G04 Created by KiCad (PCBNEW 10.0.3-10.0.3~ubuntu24.04.1) date 2026-07-23 07:45:08*
%MOMM*%
%LPD*%
G01*
G04 APERTURE LIST*
%ADD10C,0.150000*%
%ADD11C,0.120000*%
G04 APERTURE END LIST*
D10*
X41094819Y-82316666D02*
X41809104Y-82316666D01*
X41809104Y-82316666D02*
X41951961Y-82269047D01*
X41951961Y-82269047D02*
X42047200Y-82173809D01*
X42047200Y-82173809D02*
X42094819Y-82030952D01*
X42094819Y-82030952D02*
X42094819Y-81935714D01*
X41094819Y-83269047D02*
X41094819Y-82792857D01*
X41094819Y-82792857D02*
X41571009Y-82745238D01*
X41571009Y-82745238D02*
X41523390Y-82792857D01*
X41523390Y-82792857D02*
X41475771Y-82888095D01*
X41475771Y-82888095D02*
X41475771Y-83126190D01*
X41475771Y-83126190D02*
X41523390Y-83221428D01*
X41523390Y-83221428D02*
X41571009Y-83269047D01*
X41571009Y-83269047D02*
X41666247Y-83316666D01*
X41666247Y-83316666D02*
X41904342Y-83316666D01*
X41904342Y-83316666D02*
X41999580Y-83269047D01*
X41999580Y-83269047D02*
X42047200Y-83221428D01*
X42047200Y-83221428D02*
X42094819Y-83126190D01*
X42094819Y-83126190D02*
X42094819Y-82888095D01*
X42094819Y-82888095D02*
X42047200Y-82792857D01*
X42047200Y-82792857D02*
X41999580Y-82745238D01*
X61209523Y-142224819D02*
X61209523Y-142939104D01*
X61209523Y-142939104D02*
X61257142Y-143081961D01*
X61257142Y-143081961D02*
X61352380Y-143177200D01*
X61352380Y-143177200D02*
X61495237Y-143224819D01*
X61495237Y-143224819D02*
X61590475Y-143224819D01*
X60209523Y-143224819D02*
X60780951Y-143224819D01*
X60495237Y-143224819D02*
X60495237Y-142224819D01*
X60495237Y-142224819D02*
X60590475Y-142367676D01*
X60590475Y-142367676D02*
X60685713Y-142462914D01*
X60685713Y-142462914D02*
X60780951Y-142510533D01*
X59828570Y-142320057D02*
X59780951Y-142272438D01*
X59780951Y-142272438D02*
X59685713Y-142224819D01*
X59685713Y-142224819D02*
X59447618Y-142224819D01*
X59447618Y-142224819D02*
X59352380Y-142272438D01*
X59352380Y-142272438D02*
X59304761Y-142320057D01*
X59304761Y-142320057D02*
X59257142Y-142415295D01*
X59257142Y-142415295D02*
X59257142Y-142510533D01*
X59257142Y-142510533D02*
X59304761Y-142653390D01*
X59304761Y-142653390D02*
X59876189Y-143224819D01*
X59876189Y-143224819D02*
X59257142Y-143224819D01*
X35809523Y-142224819D02*
X35809523Y-142939104D01*
X35809523Y-142939104D02*
X35857142Y-143081961D01*
X35857142Y-143081961D02*
X35952380Y-143177200D01*
X35952380Y-143177200D02*
X36095237Y-143224819D01*
X36095237Y-143224819D02*
X36190475Y-143224819D01*
X34809523Y-143224819D02*
X35380951Y-143224819D01*
X35095237Y-143224819D02*
X35095237Y-142224819D01*
X35095237Y-142224819D02*
X35190475Y-142367676D01*
X35190475Y-142367676D02*
X35285713Y-142462914D01*
X35285713Y-142462914D02*
X35380951Y-142510533D01*
X33857142Y-143224819D02*
X34428570Y-143224819D01*
X34142856Y-143224819D02*
X34142856Y-142224819D01*
X34142856Y-142224819D02*
X34238094Y-142367676D01*
X34238094Y-142367676D02*
X34333332Y-142462914D01*
X34333332Y-142462914D02*
X34428570Y-142510533D01*
%TO.C,J5*%
D11*
X43080000Y-82650000D02*
X43080000Y-83980000D01*
X43080000Y-83980000D02*
X44410000Y-83980000D01*
X45680000Y-81320000D02*
X45680000Y-83980000D01*
X45680000Y-81320000D02*
X58440000Y-81320000D01*
X45680000Y-83980000D02*
X58440000Y-83980000D01*
X58440000Y-81320000D02*
X58440000Y-83980000D01*
%TO.C,J12*%
X59070000Y-85330000D02*
X61730000Y-85330000D01*
X59070000Y-138730000D02*
X59070000Y-85330000D01*
X59070000Y-138730000D02*
X61730000Y-138730000D01*
X60400000Y-141330000D02*
X61730000Y-141330000D01*
X61730000Y-138730000D02*
X61730000Y-85330000D01*
X61730000Y-141330000D02*
X61730000Y-140000000D01*
%TO.C,J11*%
X33670000Y-85330000D02*
X36330000Y-85330000D01*
X33670000Y-138730000D02*
X33670000Y-85330000D01*
X33670000Y-138730000D02*
X36330000Y-138730000D01*
X35000000Y-141330000D02*
X36330000Y-141330000D01*
X36330000Y-138730000D02*
X36330000Y-85330000D01*
X36330000Y-141330000D02*
X36330000Y-140000000D01*
%TD*%
M02*
