%TF.GenerationSoftware,KiCad,Pcbnew,10.0.3-10.0.3~ubuntu24.04.1*%
%TF.CreationDate,2026-07-23T07:45:08+02:00*%
%TF.ProjectId,v4,76342e6b-6963-4616-945f-706362585858,rev?*%
%TF.SameCoordinates,Original*%
%TF.FileFunction,Soldermask,Top*%
%TF.FilePolarity,Negative*%
%FSLAX46Y46*%
G04 Gerber Fmt 4.6, Leading zero omitted, Abs format (unit mm)*
G04 Created by KiCad (PCBNEW 10.0.3-10.0.3~ubuntu24.04.1) date 2026-07-23 07:45:08*
%MOMM*%
%LPD*%
G01*
G04 APERTURE LIST*
G04 Aperture macros list*
%AMRoundRect*
0 Rectangle with rounded corners*
0 $1 Rounding radius*
0 $2 $3 $4 $5 $6 $7 $8 $9 X,Y pos of 4 corners*
0 Add a 4 corners polygon primitive as box body*
4,1,4,$2,$3,$4,$5,$6,$7,$8,$9,$2,$3,0*
0 Add four circle primitives for the rounded corners*
1,1,$1+$1,$2,$3*
1,1,$1+$1,$4,$5*
1,1,$1+$1,$6,$7*
1,1,$1+$1,$8,$9*
0 Add four rect primitives between the rounded corners*
20,1,$1+$1,$2,$3,$4,$5,0*
20,1,$1+$1,$4,$5,$6,$7,0*
20,1,$1+$1,$6,$7,$8,$9,0*
20,1,$1+$1,$8,$9,$2,$3,0*%
G04 Aperture macros list end*
%ADD10C,0.320000*%
%ADD11RoundRect,0.250000X0.262500X0.450000X-0.262500X0.450000X-0.262500X-0.450000X0.262500X-0.450000X0*%
%ADD12RoundRect,0.250000X0.475000X-0.250000X0.475000X0.250000X-0.475000X0.250000X-0.475000X-0.250000X0*%
%ADD13C,2.100000*%
%ADD14RoundRect,0.070000X-0.070000X0.355000X-0.070000X-0.355000X0.070000X-0.355000X0.070000X0.355000X0*%
%ADD15R,0.700000X0.280000*%
%ADD16R,2.400000X1.650000*%
%ADD17RoundRect,0.250000X0.250000X0.475000X-0.250000X0.475000X-0.250000X-0.475000X0.250000X-0.475000X0*%
%ADD18RoundRect,0.250000X-0.450000X0.262500X-0.450000X-0.262500X0.450000X-0.262500X0.450000X0.262500X0*%
%ADD19RoundRect,0.150000X-0.150000X0.825000X-0.150000X-0.825000X0.150000X-0.825000X0.150000X0.825000X0*%
%ADD20RoundRect,0.250000X-0.350000X-0.625000X0.350000X-0.625000X0.350000X0.625000X-0.350000X0.625000X0*%
%ADD21O,1.200000X1.750000*%
%ADD22RoundRect,0.249999X0.450001X0.900001X-0.450001X0.900001X-0.450001X-0.900001X0.450001X-0.900001X0*%
%ADD23RoundRect,0.250001X0.799999X-2.049999X0.799999X2.049999X-0.799999X2.049999X-0.799999X-2.049999X0*%
%ADD24RoundRect,0.250000X-0.475000X0.250000X-0.475000X-0.250000X0.475000X-0.250000X0.475000X0.250000X0*%
%ADD25RoundRect,0.150000X-0.512500X-0.150000X0.512500X-0.150000X0.512500X0.150000X-0.512500X0.150000X0*%
%ADD26RoundRect,0.250000X-0.262500X-0.450000X0.262500X-0.450000X0.262500X0.450000X-0.262500X0.450000X0*%
%ADD27RoundRect,0.250000X-0.250000X-0.475000X0.250000X-0.475000X0.250000X0.475000X-0.250000X0.475000X0*%
%ADD28RoundRect,0.250000X0.450000X-0.262500X0.450000X0.262500X-0.450000X0.262500X-0.450000X-0.262500X0*%
%ADD29RoundRect,0.243750X0.243750X0.456250X-0.243750X0.456250X-0.243750X-0.456250X0.243750X-0.456250X0*%
%ADD30RoundRect,0.250000X0.650000X-1.000000X0.650000X1.000000X-0.650000X1.000000X-0.650000X-1.000000X0*%
%ADD31R,0.533400X1.460500*%
%ADD32RoundRect,0.162500X-0.162500X0.617500X-0.162500X-0.617500X0.162500X-0.617500X0.162500X0.617500X0*%
%ADD33R,0.400000X1.350000*%
%ADD34O,1.200000X1.900000*%
%ADD35R,1.200000X1.900000*%
%ADD36C,1.450000*%
%ADD37R,1.500000X1.900000*%
%ADD38RoundRect,0.150000X0.512500X0.150000X-0.512500X0.150000X-0.512500X-0.150000X0.512500X-0.150000X0*%
%ADD39RoundRect,0.150000X-0.825000X-0.150000X0.825000X-0.150000X0.825000X0.150000X-0.825000X0.150000X0*%
%ADD40R,2.290000X3.000000*%
%ADD41C,0.350000*%
%ADD42C,0.927000*%
%ADD43C,0.766000*%
%ADD44C,0.816000*%
%ADD45R,1.700000X1.700000*%
%ADD46C,1.700000*%
G04 APERTURE END LIST*
%TO.C,U1*%
D10*
X44688500Y-150474500D02*
G75*
G02*
X43771500Y-150474500I-458500J0D01*
G01*
X43771500Y-150474500D02*
G75*
G02*
X44688500Y-150474500I458500J0D01*
G01*
%TD*%
D11*
%TO.C,R25*%
X44850000Y-117070000D03*
X43025000Y-117070000D03*
%TD*%
D12*
%TO.C,C4*%
X51250000Y-139460000D03*
X51250000Y-137560000D03*
%TD*%
D11*
%TO.C,R23*%
X45202500Y-119630000D03*
X43377500Y-119630000D03*
%TD*%
D13*
%TO.C,H2*%
X33000000Y-57000000D03*
%TD*%
D14*
%TO.C,U10*%
X53900000Y-93457500D03*
X53400000Y-93457500D03*
X52900000Y-93457500D03*
X52400000Y-93457500D03*
X51900000Y-93457500D03*
X51900000Y-96407500D03*
X52400000Y-96407500D03*
X52900000Y-96407500D03*
X53400000Y-96407500D03*
X53900000Y-96407500D03*
D15*
X54450000Y-94682500D03*
X51350000Y-94682500D03*
D16*
X52900000Y-94932500D03*
D15*
X54450000Y-95182500D03*
X51350000Y-95182500D03*
%TD*%
D17*
%TO.C,C13*%
X40480000Y-113222500D03*
X38580000Y-113222500D03*
%TD*%
D18*
%TO.C,R2*%
X51580000Y-104767500D03*
X51580000Y-106592500D03*
%TD*%
D19*
%TO.C,U2*%
X45987500Y-107707500D03*
X44717500Y-107707500D03*
X43447500Y-107707500D03*
X42177500Y-107707500D03*
X42177500Y-112657500D03*
X43447500Y-112657500D03*
X44717500Y-112657500D03*
X45987500Y-112657500D03*
%TD*%
D20*
%TO.C,J6*%
X54180000Y-56260000D03*
D21*
X56180000Y-56260000D03*
%TD*%
D13*
%TO.C,H3*%
X63000000Y-57000000D03*
%TD*%
D22*
%TO.C,L1*%
X57025000Y-71500000D03*
X53475000Y-71500000D03*
%TD*%
D18*
%TO.C,R7*%
X54590000Y-64857500D03*
X54590000Y-66682500D03*
%TD*%
%TO.C,R6*%
X46260000Y-144110000D03*
X46260000Y-145935000D03*
%TD*%
D23*
%TO.C,C28*%
X37040000Y-81550000D03*
X37040000Y-72750000D03*
%TD*%
D24*
%TO.C,C24*%
X61900000Y-69610000D03*
X61900000Y-71510000D03*
%TD*%
D25*
%TO.C,U8*%
X53932500Y-74747500D03*
X53932500Y-75697500D03*
X53932500Y-76647500D03*
X56207500Y-76647500D03*
X56207500Y-75697500D03*
X56207500Y-74747500D03*
%TD*%
D17*
%TO.C,C29*%
X45245000Y-76120000D03*
X43345000Y-76120000D03*
%TD*%
D26*
%TO.C,R10*%
X38585000Y-111112500D03*
X40410000Y-111112500D03*
%TD*%
D24*
%TO.C,C19*%
X47340000Y-148350000D03*
X47340000Y-150250000D03*
%TD*%
D27*
%TO.C,C23*%
X47120000Y-60390000D03*
X49020000Y-60390000D03*
%TD*%
D25*
%TO.C,U3*%
X44910000Y-140370000D03*
X44910000Y-141320000D03*
X44910000Y-142270000D03*
X47185000Y-142270000D03*
X47185000Y-141320000D03*
X47185000Y-140370000D03*
%TD*%
D27*
%TO.C,C30*%
X47130000Y-62500000D03*
X49030000Y-62500000D03*
%TD*%
D24*
%TO.C,C14*%
X51850000Y-141580000D03*
X51850000Y-143480000D03*
%TD*%
D28*
%TO.C,R1*%
X49250000Y-106592500D03*
X49250000Y-104767500D03*
%TD*%
D12*
%TO.C,C10*%
X46890000Y-104982500D03*
X46890000Y-103082500D03*
%TD*%
D11*
%TO.C,R24*%
X45202500Y-121690000D03*
X43377500Y-121690000D03*
%TD*%
D27*
%TO.C,C26*%
X58332500Y-76217500D03*
X60232500Y-76217500D03*
%TD*%
D13*
%TO.C,H1*%
X33000000Y-150000000D03*
%TD*%
D27*
%TO.C,C25*%
X42970000Y-66670000D03*
X44870000Y-66670000D03*
%TD*%
%TO.C,C1*%
X41250000Y-131590000D03*
X43150000Y-131590000D03*
%TD*%
D18*
%TO.C,R3*%
X42680000Y-140895000D03*
X42680000Y-142720000D03*
%TD*%
D25*
%TO.C,U6*%
X38632500Y-65650000D03*
X38632500Y-66600000D03*
X38632500Y-67550000D03*
X40907500Y-67550000D03*
X40907500Y-66600000D03*
X40907500Y-65650000D03*
%TD*%
D12*
%TO.C,C7*%
X47812500Y-112932500D03*
X47812500Y-111032500D03*
%TD*%
%TO.C,C16*%
X52070000Y-128880000D03*
X52070000Y-126980000D03*
%TD*%
D26*
%TO.C,R4*%
X50817500Y-64670000D03*
X52642500Y-64670000D03*
%TD*%
%TO.C,R22*%
X43302500Y-72040000D03*
X45127500Y-72040000D03*
%TD*%
D13*
%TO.C,H4*%
X63000000Y-150000000D03*
%TD*%
D28*
%TO.C,R26*%
X54250000Y-139852500D03*
X54250000Y-138027500D03*
%TD*%
D29*
%TO.C,D2*%
X48957500Y-66770000D03*
X47082500Y-66770000D03*
%TD*%
D27*
%TO.C,C6*%
X41230000Y-133910000D03*
X43130000Y-133910000D03*
%TD*%
D26*
%TO.C,R8*%
X34750000Y-65380000D03*
X36575000Y-65380000D03*
%TD*%
D24*
%TO.C,C21*%
X55900000Y-130650000D03*
X55900000Y-132550000D03*
%TD*%
%TO.C,C11*%
X53710000Y-104792500D03*
X53710000Y-106692500D03*
%TD*%
D27*
%TO.C,C31*%
X48810000Y-115010000D03*
X50710000Y-115010000D03*
%TD*%
D30*
%TO.C,D3*%
X49330000Y-75437500D03*
X49330000Y-71437500D03*
%TD*%
D11*
%TO.C,R12*%
X43150000Y-128080000D03*
X41325000Y-128080000D03*
%TD*%
D31*
%TO.C,U9*%
X47845000Y-123173050D03*
X49115000Y-123173050D03*
X50385000Y-123173050D03*
X51655000Y-123173050D03*
X52925000Y-123173050D03*
X54195000Y-123173050D03*
X55465000Y-123173050D03*
X56735000Y-123173050D03*
X56735000Y-117724750D03*
X55465000Y-117724750D03*
X54195000Y-117724750D03*
X52925000Y-117724750D03*
X51655000Y-117724750D03*
X50385000Y-117724750D03*
X49115000Y-117724750D03*
X47845000Y-117724750D03*
%TD*%
D28*
%TO.C,R15*%
X44570000Y-138702500D03*
X44570000Y-136877500D03*
%TD*%
D12*
%TO.C,C18*%
X57180000Y-96540000D03*
X57180000Y-94640000D03*
%TD*%
D28*
%TO.C,R13*%
X49610000Y-143450000D03*
X49610000Y-141625000D03*
%TD*%
D12*
%TO.C,C5*%
X54200000Y-91640000D03*
X54200000Y-89740000D03*
%TD*%
D11*
%TO.C,R20*%
X44830000Y-68780000D03*
X43005000Y-68780000D03*
%TD*%
D29*
%TO.C,D1*%
X48977500Y-64640000D03*
X47102500Y-64640000D03*
%TD*%
D24*
%TO.C,C22*%
X53700000Y-130640000D03*
X53700000Y-132540000D03*
%TD*%
D28*
%TO.C,R11*%
X55060000Y-100315000D03*
X55060000Y-98490000D03*
%TD*%
D18*
%TO.C,R9*%
X53050000Y-98490000D03*
X53050000Y-100315000D03*
%TD*%
D32*
%TO.C,U4*%
X51640000Y-130940000D03*
X50690000Y-130940000D03*
X49740000Y-130940000D03*
X49740000Y-133640000D03*
X50690000Y-133640000D03*
X51640000Y-133640000D03*
%TD*%
D26*
%TO.C,R5*%
X50797500Y-66780000D03*
X52622500Y-66780000D03*
%TD*%
D33*
%TO.C,J1*%
X46200000Y-58240000D03*
X45550000Y-58240000D03*
X44900000Y-58240000D03*
X44250000Y-58240000D03*
X43600000Y-58240000D03*
D34*
X48400000Y-55540000D03*
D35*
X47800000Y-55540000D03*
D36*
X47400000Y-58240000D03*
D37*
X45900000Y-55540000D03*
X43900000Y-55540000D03*
D36*
X42400000Y-58240000D03*
D35*
X42000000Y-55540000D03*
D34*
X41400000Y-55540000D03*
%TD*%
D28*
%TO.C,R18*%
X49400000Y-150195000D03*
X49400000Y-148370000D03*
%TD*%
D26*
%TO.C,R21*%
X43352500Y-74160000D03*
X45177500Y-74160000D03*
%TD*%
D12*
%TO.C,C9*%
X52070000Y-91660000D03*
X52070000Y-89760000D03*
%TD*%
D24*
%TO.C,C12*%
X42700000Y-144270000D03*
X42700000Y-146170000D03*
%TD*%
D17*
%TO.C,C15*%
X44890000Y-115062500D03*
X42990000Y-115062500D03*
%TD*%
D18*
%TO.C,R16*%
X44830000Y-103142500D03*
X44830000Y-104967500D03*
%TD*%
D38*
%TO.C,U7*%
X40890000Y-63960000D03*
X40890000Y-63010000D03*
X40890000Y-62060000D03*
X38615000Y-62060000D03*
X38615000Y-63010000D03*
X38615000Y-63960000D03*
%TD*%
D12*
%TO.C,C8*%
X49170000Y-139490000D03*
X49170000Y-137590000D03*
%TD*%
D27*
%TO.C,C27*%
X39320000Y-85380000D03*
X41220000Y-85380000D03*
%TD*%
D39*
%TO.C,U5*%
X56865000Y-63795000D03*
X56865000Y-65065000D03*
X56865000Y-66335000D03*
X56865000Y-67605000D03*
X61815000Y-67605000D03*
X61815000Y-66335000D03*
X61815000Y-65065000D03*
X61815000Y-63795000D03*
D40*
X59340000Y-65700000D03*
%TD*%
D41*
%TO.C,U1*%
X44230000Y-150474500D03*
D42*
X43264000Y-148371500D03*
D43*
X43215000Y-151108500D03*
X45245000Y-151108500D03*
D42*
X45196000Y-148371500D03*
D44*
X44230000Y-148371500D03*
%TD*%
D24*
%TO.C,C20*%
X57090000Y-98500000D03*
X57090000Y-100400000D03*
%TD*%
D18*
%TO.C,R17*%
X49940000Y-127047500D03*
X49940000Y-128872500D03*
%TD*%
D11*
%TO.C,R19*%
X36502500Y-67590000D03*
X34677500Y-67590000D03*
%TD*%
D24*
%TO.C,C17*%
X50980000Y-98422500D03*
X50980000Y-100322500D03*
%TD*%
D12*
%TO.C,C2*%
X49962500Y-112942500D03*
X49962500Y-111042500D03*
%TD*%
D45*
%TO.C,J5*%
X44410000Y-82650000D03*
D46*
X46950000Y-82650000D03*
X49490000Y-82650000D03*
X52030000Y-82650000D03*
X54570000Y-82650000D03*
X57110000Y-82650000D03*
%TD*%
D45*
%TO.C,J12*%
X60400000Y-140000000D03*
D46*
X60400000Y-137460000D03*
X60400000Y-134920000D03*
X60400000Y-132380000D03*
X60400000Y-129840000D03*
X60400000Y-127300000D03*
X60400000Y-124760000D03*
X60400000Y-122220000D03*
X60400000Y-119680000D03*
X60400000Y-117140000D03*
X60400000Y-114600000D03*
X60400000Y-112060000D03*
X60400000Y-109520000D03*
X60400000Y-106980000D03*
X60400000Y-104440000D03*
X60400000Y-101900000D03*
X60400000Y-99360000D03*
X60400000Y-96820000D03*
X60400000Y-94280000D03*
X60400000Y-91740000D03*
X60400000Y-89200000D03*
X60400000Y-86660000D03*
%TD*%
D45*
%TO.C,J11*%
X35000000Y-140000000D03*
D46*
X35000000Y-137460000D03*
X35000000Y-134920000D03*
X35000000Y-132380000D03*
X35000000Y-129840000D03*
X35000000Y-127300000D03*
X35000000Y-124760000D03*
X35000000Y-122220000D03*
X35000000Y-119680000D03*
X35000000Y-117140000D03*
X35000000Y-114600000D03*
X35000000Y-112060000D03*
X35000000Y-109520000D03*
X35000000Y-106980000D03*
X35000000Y-104440000D03*
X35000000Y-101900000D03*
X35000000Y-99360000D03*
X35000000Y-96820000D03*
X35000000Y-94280000D03*
X35000000Y-91740000D03*
X35000000Y-89200000D03*
X35000000Y-86660000D03*
%TD*%
M02*
