%TF.GenerationSoftware,KiCad,Pcbnew,10.0.3-10.0.3~ubuntu24.04.1*%
%TF.CreationDate,2026-07-23T07:45:08+02:00*%
%TF.ProjectId,v4,76342e6b-6963-4616-945f-706362585858,rev?*%
%TF.SameCoordinates,Original*%
%TF.FileFunction,Paste,Top*%
%TF.FilePolarity,Positive*%
%FSLAX46Y46*%
G04 Gerber Fmt 4.6, Leading zero omitted, Abs format (unit mm)*
G04 Created by KiCad (PCBNEW 10.0.3-10.0.3~ubuntu24.04.1) date 2026-07-23 07:45:08*
%MOMM*%
%LPD*%
G01*
G04 APERTURE LIST*
G04 Aperture macros list*
%AMRoundRect*
0 Rectangle with rounded corners*
0 $1 Rounding radius*
0 $2 $3 $4 $5 $6 $7 $8 $9 X,Y pos of 4 corners*
0 Add a 4 corners polygon primitive as box body*
4,1,4,$2,$3,$4,$5,$6,$7,$8,$9,$2,$3,0*
0 Add four circle primitives for the rounded corners*
1,1,$1+$1,$2,$3*
1,1,$1+$1,$4,$5*
1,1,$1+$1,$6,$7*
1,1,$1+$1,$8,$9*
0 Add four rect primitives between the rounded corners*
20,1,$1+$1,$2,$3,$4,$5,0*
20,1,$1+$1,$4,$5,$6,$7,0*
20,1,$1+$1,$6,$7,$8,$9,0*
20,1,$1+$1,$8,$9,$2,$3,0*%
G04 Aperture macros list end*
%ADD10C,0.001000*%
%ADD11RoundRect,0.250000X0.262500X0.450000X-0.262500X0.450000X-0.262500X-0.450000X0.262500X-0.450000X0*%
%ADD12RoundRect,0.250000X0.475000X-0.250000X0.475000X0.250000X-0.475000X0.250000X-0.475000X-0.250000X0*%
%ADD13R,0.640000X0.640000*%
%ADD14RoundRect,0.070000X-0.070000X0.355000X-0.070000X-0.355000X0.070000X-0.355000X0.070000X0.355000X0*%
%ADD15R,0.700000X0.280000*%
%ADD16RoundRect,0.250000X0.250000X0.475000X-0.250000X0.475000X-0.250000X-0.475000X0.250000X-0.475000X0*%
%ADD17RoundRect,0.250000X-0.450000X0.262500X-0.450000X-0.262500X0.450000X-0.262500X0.450000X0.262500X0*%
%ADD18RoundRect,0.150000X-0.150000X0.825000X-0.150000X-0.825000X0.150000X-0.825000X0.150000X0.825000X0*%
%ADD19RoundRect,0.249999X0.450001X0.900001X-0.450001X0.900001X-0.450001X-0.900001X0.450001X-0.900001X0*%
%ADD20RoundRect,0.250001X0.799999X-2.049999X0.799999X2.049999X-0.799999X2.049999X-0.799999X-2.049999X0*%
%ADD21RoundRect,0.250000X-0.475000X0.250000X-0.475000X-0.250000X0.475000X-0.250000X0.475000X0.250000X0*%
%ADD22RoundRect,0.150000X-0.512500X-0.150000X0.512500X-0.150000X0.512500X0.150000X-0.512500X0.150000X0*%
%ADD23RoundRect,0.250000X-0.262500X-0.450000X0.262500X-0.450000X0.262500X0.450000X-0.262500X0.450000X0*%
%ADD24RoundRect,0.250000X-0.250000X-0.475000X0.250000X-0.475000X0.250000X0.475000X-0.250000X0.475000X0*%
%ADD25RoundRect,0.250000X0.450000X-0.262500X0.450000X0.262500X-0.450000X0.262500X-0.450000X-0.262500X0*%
%ADD26RoundRect,0.243750X0.243750X0.456250X-0.243750X0.456250X-0.243750X-0.456250X0.243750X-0.456250X0*%
%ADD27RoundRect,0.250000X0.650000X-1.000000X0.650000X1.000000X-0.650000X1.000000X-0.650000X-1.000000X0*%
%ADD28R,0.533400X1.460500*%
%ADD29RoundRect,0.162500X-0.162500X0.617500X-0.162500X-0.617500X0.162500X-0.617500X0.162500X0.617500X0*%
%ADD30R,0.400000X1.350000*%
%ADD31R,1.500000X1.900000*%
%ADD32RoundRect,0.150000X0.512500X0.150000X-0.512500X0.150000X-0.512500X-0.150000X0.512500X-0.150000X0*%
%ADD33RoundRect,0.230000X-0.230000X-0.375000X0.230000X-0.375000X0.230000X0.375000X-0.230000X0.375000X0*%
%ADD34RoundRect,0.150000X-0.825000X-0.150000X0.825000X-0.150000X0.825000X0.150000X-0.825000X0.150000X0*%
%ADD35C,0.723000*%
%ADD36C,0.562000*%
%ADD37C,0.612000*%
G04 APERTURE END LIST*
D10*
%TO.C,U1*%
X43749875Y-150100441D02*
X43968000Y-150318000D01*
X43962000Y-150328000D01*
X43957000Y-150337000D01*
X43952000Y-150347000D01*
X43947000Y-150357000D01*
X43943000Y-150367000D01*
X43939000Y-150378000D01*
X43936000Y-150388000D01*
X43933000Y-150399000D01*
X43930000Y-150409000D01*
X43928000Y-150420000D01*
X43926000Y-150431000D01*
X43925000Y-150442000D01*
X43924000Y-150453000D01*
X43923000Y-150464000D01*
X43923000Y-150475000D01*
X43923000Y-150485000D01*
X43924000Y-150496000D01*
X43925000Y-150507000D01*
X43926000Y-150518000D01*
X43928000Y-150529000D01*
X43930000Y-150540000D01*
X43933000Y-150550000D01*
X43936000Y-150561000D01*
X43939000Y-150571000D01*
X43943000Y-150582000D01*
X43947000Y-150592000D01*
X43952000Y-150602000D01*
X43957000Y-150612000D01*
X43962000Y-150621000D01*
X43968000Y-150631000D01*
X43750000Y-150849000D01*
X43731000Y-150823000D01*
X43716000Y-150801000D01*
X43702000Y-150779000D01*
X43689000Y-150755000D01*
X43677000Y-150732000D01*
X43666000Y-150707000D01*
X43656000Y-150683000D01*
X43648000Y-150658000D01*
X43640000Y-150632000D01*
X43634000Y-150606000D01*
X43629000Y-150580000D01*
X43625000Y-150554000D01*
X43622000Y-150528000D01*
X43620000Y-150501000D01*
X43619000Y-150475000D01*
X43620000Y-150448000D01*
X43622000Y-150421000D01*
X43625000Y-150395000D01*
X43629000Y-150369000D01*
X43634000Y-150343000D01*
X43640000Y-150317000D01*
X43648000Y-150291000D01*
X43656000Y-150266000D01*
X43666000Y-150242000D01*
X43677000Y-150217000D01*
X43689000Y-150194000D01*
X43702000Y-150170000D01*
X43716000Y-150148000D01*
X43731000Y-150126000D01*
X43750000Y-150100000D01*
X43749875Y-150100441D01*
G36*
X43749875Y-150100441D02*
G01*
X43968000Y-150318000D01*
X43962000Y-150328000D01*
X43957000Y-150337000D01*
X43952000Y-150347000D01*
X43947000Y-150357000D01*
X43943000Y-150367000D01*
X43939000Y-150378000D01*
X43936000Y-150388000D01*
X43933000Y-150399000D01*
X43930000Y-150409000D01*
X43928000Y-150420000D01*
X43926000Y-150431000D01*
X43925000Y-150442000D01*
X43924000Y-150453000D01*
X43923000Y-150464000D01*
X43923000Y-150475000D01*
X43923000Y-150485000D01*
X43924000Y-150496000D01*
X43925000Y-150507000D01*
X43926000Y-150518000D01*
X43928000Y-150529000D01*
X43930000Y-150540000D01*
X43933000Y-150550000D01*
X43936000Y-150561000D01*
X43939000Y-150571000D01*
X43943000Y-150582000D01*
X43947000Y-150592000D01*
X43952000Y-150602000D01*
X43957000Y-150612000D01*
X43962000Y-150621000D01*
X43968000Y-150631000D01*
X43750000Y-150849000D01*
X43731000Y-150823000D01*
X43716000Y-150801000D01*
X43702000Y-150779000D01*
X43689000Y-150755000D01*
X43677000Y-150732000D01*
X43666000Y-150707000D01*
X43656000Y-150683000D01*
X43648000Y-150658000D01*
X43640000Y-150632000D01*
X43634000Y-150606000D01*
X43629000Y-150580000D01*
X43625000Y-150554000D01*
X43622000Y-150528000D01*
X43620000Y-150501000D01*
X43619000Y-150475000D01*
X43620000Y-150448000D01*
X43622000Y-150421000D01*
X43625000Y-150395000D01*
X43629000Y-150369000D01*
X43634000Y-150343000D01*
X43640000Y-150317000D01*
X43648000Y-150291000D01*
X43656000Y-150266000D01*
X43666000Y-150242000D01*
X43677000Y-150217000D01*
X43689000Y-150194000D01*
X43702000Y-150170000D01*
X43716000Y-150148000D01*
X43731000Y-150126000D01*
X43750000Y-150100000D01*
X43749875Y-150100441D01*
G37*
X43855941Y-150954630D02*
X44074000Y-150737000D01*
X44083000Y-150742000D01*
X44093000Y-150748000D01*
X44103000Y-150753000D01*
X44113000Y-150757000D01*
X44123000Y-150761000D01*
X44133000Y-150765000D01*
X44143000Y-150769000D01*
X44154000Y-150772000D01*
X44165000Y-150774000D01*
X44175000Y-150777000D01*
X44186000Y-150778000D01*
X44197000Y-150780000D01*
X44208000Y-150781000D01*
X44219000Y-150781000D01*
X44230000Y-150782000D01*
X44241000Y-150781000D01*
X44252000Y-150781000D01*
X44263000Y-150780000D01*
X44274000Y-150778000D01*
X44285000Y-150777000D01*
X44295000Y-150774000D01*
X44306000Y-150772000D01*
X44317000Y-150769000D01*
X44327000Y-150765000D01*
X44337000Y-150761000D01*
X44347000Y-150757000D01*
X44357000Y-150753000D01*
X44367000Y-150748000D01*
X44377000Y-150742000D01*
X44386000Y-150737000D01*
X44604000Y-150955000D01*
X44578000Y-150974000D01*
X44556000Y-150989000D01*
X44533000Y-151003000D01*
X44510000Y-151016000D01*
X44486000Y-151028000D01*
X44461000Y-151039000D01*
X44436000Y-151049000D01*
X44410000Y-151058000D01*
X44385000Y-151065000D01*
X44358000Y-151071000D01*
X44332000Y-151077000D01*
X44305000Y-151081000D01*
X44279000Y-151083000D01*
X44252000Y-151085000D01*
X44225000Y-151085000D01*
X44198000Y-151084000D01*
X44171000Y-151082000D01*
X44144000Y-151079000D01*
X44118000Y-151075000D01*
X44091000Y-151069000D01*
X44065000Y-151062000D01*
X44040000Y-151054000D01*
X44014000Y-151045000D01*
X43989000Y-151035000D01*
X43965000Y-151024000D01*
X43941000Y-151011000D01*
X43918000Y-150998000D01*
X43895000Y-150983000D01*
X43873000Y-150968000D01*
X43856000Y-150955000D01*
X43855941Y-150954630D01*
G36*
X44604000Y-150955000D02*
G01*
X44578000Y-150974000D01*
X44556000Y-150989000D01*
X44533000Y-151003000D01*
X44510000Y-151016000D01*
X44486000Y-151028000D01*
X44461000Y-151039000D01*
X44436000Y-151049000D01*
X44410000Y-151058000D01*
X44385000Y-151065000D01*
X44358000Y-151071000D01*
X44332000Y-151077000D01*
X44305000Y-151081000D01*
X44279000Y-151083000D01*
X44252000Y-151085000D01*
X44225000Y-151085000D01*
X44198000Y-151084000D01*
X44171000Y-151082000D01*
X44144000Y-151079000D01*
X44118000Y-151075000D01*
X44091000Y-151069000D01*
X44065000Y-151062000D01*
X44040000Y-151054000D01*
X44014000Y-151045000D01*
X43989000Y-151035000D01*
X43965000Y-151024000D01*
X43941000Y-151011000D01*
X43918000Y-150998000D01*
X43895000Y-150983000D01*
X43873000Y-150968000D01*
X43856000Y-150955000D01*
X43855941Y-150954630D01*
X44074000Y-150737000D01*
X44083000Y-150742000D01*
X44093000Y-150748000D01*
X44103000Y-150753000D01*
X44113000Y-150757000D01*
X44123000Y-150761000D01*
X44133000Y-150765000D01*
X44143000Y-150769000D01*
X44154000Y-150772000D01*
X44165000Y-150774000D01*
X44175000Y-150777000D01*
X44186000Y-150778000D01*
X44197000Y-150780000D01*
X44208000Y-150781000D01*
X44219000Y-150781000D01*
X44230000Y-150782000D01*
X44241000Y-150781000D01*
X44252000Y-150781000D01*
X44263000Y-150780000D01*
X44274000Y-150778000D01*
X44285000Y-150777000D01*
X44295000Y-150774000D01*
X44306000Y-150772000D01*
X44317000Y-150769000D01*
X44327000Y-150765000D01*
X44337000Y-150761000D01*
X44347000Y-150757000D01*
X44357000Y-150753000D01*
X44367000Y-150748000D01*
X44377000Y-150742000D01*
X44386000Y-150737000D01*
X44604000Y-150955000D01*
G37*
X44604059Y-149994375D02*
X44386000Y-150212000D01*
X44377000Y-150207000D01*
X44367000Y-150201000D01*
X44357000Y-150196000D01*
X44347000Y-150192000D01*
X44337000Y-150188000D01*
X44327000Y-150184000D01*
X44317000Y-150180000D01*
X44306000Y-150177000D01*
X44295000Y-150175000D01*
X44285000Y-150172000D01*
X44274000Y-150171000D01*
X44263000Y-150169000D01*
X44252000Y-150168000D01*
X44241000Y-150168000D01*
X44230000Y-150167000D01*
X44219000Y-150168000D01*
X44208000Y-150168000D01*
X44197000Y-150169000D01*
X44186000Y-150171000D01*
X44175000Y-150172000D01*
X44165000Y-150175000D01*
X44154000Y-150177000D01*
X44143000Y-150180000D01*
X44133000Y-150184000D01*
X44123000Y-150188000D01*
X44113000Y-150192000D01*
X44103000Y-150196000D01*
X44093000Y-150201000D01*
X44083000Y-150207000D01*
X44074000Y-150212000D01*
X43856000Y-149994000D01*
X43873000Y-149981000D01*
X43895000Y-149966000D01*
X43918000Y-149951000D01*
X43941000Y-149938000D01*
X43965000Y-149925000D01*
X43989000Y-149914000D01*
X44014000Y-149904000D01*
X44040000Y-149895000D01*
X44065000Y-149887000D01*
X44091000Y-149880000D01*
X44118000Y-149874000D01*
X44144000Y-149870000D01*
X44171000Y-149867000D01*
X44198000Y-149865000D01*
X44225000Y-149864000D01*
X44252000Y-149864000D01*
X44279000Y-149866000D01*
X44305000Y-149868000D01*
X44332000Y-149872000D01*
X44358000Y-149878000D01*
X44385000Y-149884000D01*
X44410000Y-149891000D01*
X44436000Y-149900000D01*
X44461000Y-149910000D01*
X44486000Y-149921000D01*
X44510000Y-149933000D01*
X44533000Y-149946000D01*
X44556000Y-149960000D01*
X44578000Y-149975000D01*
X44604000Y-149994000D01*
X44604059Y-149994375D01*
G36*
X44279000Y-149866000D02*
G01*
X44305000Y-149868000D01*
X44332000Y-149872000D01*
X44358000Y-149878000D01*
X44385000Y-149884000D01*
X44410000Y-149891000D01*
X44436000Y-149900000D01*
X44461000Y-149910000D01*
X44486000Y-149921000D01*
X44510000Y-149933000D01*
X44533000Y-149946000D01*
X44556000Y-149960000D01*
X44578000Y-149975000D01*
X44604000Y-149994000D01*
X44604059Y-149994375D01*
X44386000Y-150212000D01*
X44377000Y-150207000D01*
X44367000Y-150201000D01*
X44357000Y-150196000D01*
X44347000Y-150192000D01*
X44337000Y-150188000D01*
X44327000Y-150184000D01*
X44317000Y-150180000D01*
X44306000Y-150177000D01*
X44295000Y-150175000D01*
X44285000Y-150172000D01*
X44274000Y-150171000D01*
X44263000Y-150169000D01*
X44252000Y-150168000D01*
X44241000Y-150168000D01*
X44230000Y-150167000D01*
X44219000Y-150168000D01*
X44208000Y-150168000D01*
X44197000Y-150169000D01*
X44186000Y-150171000D01*
X44175000Y-150172000D01*
X44165000Y-150175000D01*
X44154000Y-150177000D01*
X44143000Y-150180000D01*
X44133000Y-150184000D01*
X44123000Y-150188000D01*
X44113000Y-150192000D01*
X44103000Y-150196000D01*
X44093000Y-150201000D01*
X44083000Y-150207000D01*
X44074000Y-150212000D01*
X43856000Y-149994000D01*
X43873000Y-149981000D01*
X43895000Y-149966000D01*
X43918000Y-149951000D01*
X43941000Y-149938000D01*
X43965000Y-149925000D01*
X43989000Y-149914000D01*
X44014000Y-149904000D01*
X44040000Y-149895000D01*
X44065000Y-149887000D01*
X44091000Y-149880000D01*
X44118000Y-149874000D01*
X44144000Y-149870000D01*
X44171000Y-149867000D01*
X44198000Y-149865000D01*
X44225000Y-149864000D01*
X44252000Y-149864000D01*
X44279000Y-149866000D01*
G37*
X44710125Y-150848560D02*
X44492000Y-150631000D01*
X44498000Y-150621000D01*
X44503000Y-150612000D01*
X44508000Y-150602000D01*
X44513000Y-150592000D01*
X44517000Y-150582000D01*
X44521000Y-150571000D01*
X44524000Y-150561000D01*
X44527000Y-150550000D01*
X44530000Y-150540000D01*
X44532000Y-150529000D01*
X44534000Y-150518000D01*
X44535000Y-150507000D01*
X44536000Y-150496000D01*
X44537000Y-150485000D01*
X44537000Y-150475000D01*
X44537000Y-150464000D01*
X44536000Y-150453000D01*
X44535000Y-150442000D01*
X44534000Y-150431000D01*
X44532000Y-150420000D01*
X44530000Y-150409000D01*
X44527000Y-150399000D01*
X44524000Y-150388000D01*
X44521000Y-150378000D01*
X44517000Y-150367000D01*
X44513000Y-150357000D01*
X44508000Y-150347000D01*
X44503000Y-150337000D01*
X44498000Y-150328000D01*
X44492000Y-150318000D01*
X44710000Y-150100000D01*
X44724000Y-150118000D01*
X44739000Y-150140000D01*
X44754000Y-150163000D01*
X44767000Y-150187000D01*
X44780000Y-150211000D01*
X44791000Y-150236000D01*
X44802000Y-150261000D01*
X44811000Y-150287000D01*
X44819000Y-150313000D01*
X44825000Y-150339000D01*
X44831000Y-150366000D01*
X44835000Y-150393000D01*
X44838000Y-150420000D01*
X44840000Y-150447000D01*
X44841000Y-150475000D01*
X44840000Y-150502000D01*
X44838000Y-150529000D01*
X44835000Y-150556000D01*
X44831000Y-150583000D01*
X44825000Y-150610000D01*
X44819000Y-150636000D01*
X44811000Y-150662000D01*
X44802000Y-150688000D01*
X44791000Y-150713000D01*
X44780000Y-150738000D01*
X44767000Y-150762000D01*
X44754000Y-150786000D01*
X44739000Y-150809000D01*
X44724000Y-150831000D01*
X44710000Y-150849000D01*
X44710125Y-150848560D01*
G36*
X44724000Y-150118000D02*
G01*
X44739000Y-150140000D01*
X44754000Y-150163000D01*
X44767000Y-150187000D01*
X44780000Y-150211000D01*
X44791000Y-150236000D01*
X44802000Y-150261000D01*
X44811000Y-150287000D01*
X44819000Y-150313000D01*
X44825000Y-150339000D01*
X44831000Y-150366000D01*
X44835000Y-150393000D01*
X44838000Y-150420000D01*
X44840000Y-150447000D01*
X44841000Y-150475000D01*
X44840000Y-150502000D01*
X44838000Y-150529000D01*
X44835000Y-150556000D01*
X44831000Y-150583000D01*
X44825000Y-150610000D01*
X44819000Y-150636000D01*
X44811000Y-150662000D01*
X44802000Y-150688000D01*
X44791000Y-150713000D01*
X44780000Y-150738000D01*
X44767000Y-150762000D01*
X44754000Y-150786000D01*
X44739000Y-150809000D01*
X44724000Y-150831000D01*
X44710000Y-150849000D01*
X44710125Y-150848560D01*
X44492000Y-150631000D01*
X44498000Y-150621000D01*
X44503000Y-150612000D01*
X44508000Y-150602000D01*
X44513000Y-150592000D01*
X44517000Y-150582000D01*
X44521000Y-150571000D01*
X44524000Y-150561000D01*
X44527000Y-150550000D01*
X44530000Y-150540000D01*
X44532000Y-150529000D01*
X44534000Y-150518000D01*
X44535000Y-150507000D01*
X44536000Y-150496000D01*
X44537000Y-150485000D01*
X44537000Y-150475000D01*
X44537000Y-150464000D01*
X44536000Y-150453000D01*
X44535000Y-150442000D01*
X44534000Y-150431000D01*
X44532000Y-150420000D01*
X44530000Y-150409000D01*
X44527000Y-150399000D01*
X44524000Y-150388000D01*
X44521000Y-150378000D01*
X44517000Y-150367000D01*
X44513000Y-150357000D01*
X44508000Y-150347000D01*
X44503000Y-150337000D01*
X44498000Y-150328000D01*
X44492000Y-150318000D01*
X44710000Y-150100000D01*
X44724000Y-150118000D01*
G37*
%TD*%
D11*
%TO.C,R25*%
X44850000Y-117070000D03*
X43025000Y-117070000D03*
%TD*%
D12*
%TO.C,C4*%
X51250000Y-139460000D03*
X51250000Y-137560000D03*
%TD*%
D11*
%TO.C,R23*%
X45202500Y-119630000D03*
X43377500Y-119630000D03*
%TD*%
D13*
%TO.C,U10*%
X53700000Y-94520000D03*
X52900000Y-94520000D03*
X52100000Y-94520000D03*
X53700000Y-95345000D03*
X52900000Y-95345000D03*
X52100000Y-95345000D03*
D14*
X53900000Y-93457500D03*
X53400000Y-93457500D03*
X52900000Y-93457500D03*
X52400000Y-93457500D03*
X51900000Y-93457500D03*
X51900000Y-96407500D03*
X52400000Y-96407500D03*
X52900000Y-96407500D03*
X53400000Y-96407500D03*
X53900000Y-96407500D03*
D15*
X54450000Y-94682500D03*
X51350000Y-94682500D03*
X54450000Y-95182500D03*
X51350000Y-95182500D03*
%TD*%
D16*
%TO.C,C13*%
X40480000Y-113222500D03*
X38580000Y-113222500D03*
%TD*%
D17*
%TO.C,R2*%
X51580000Y-104767500D03*
X51580000Y-106592500D03*
%TD*%
D18*
%TO.C,U2*%
X45987500Y-107707500D03*
X44717500Y-107707500D03*
X43447500Y-107707500D03*
X42177500Y-107707500D03*
X42177500Y-112657500D03*
X43447500Y-112657500D03*
X44717500Y-112657500D03*
X45987500Y-112657500D03*
%TD*%
D19*
%TO.C,L1*%
X57025000Y-71500000D03*
X53475000Y-71500000D03*
%TD*%
D17*
%TO.C,R7*%
X54590000Y-64857500D03*
X54590000Y-66682500D03*
%TD*%
%TO.C,R6*%
X46260000Y-144110000D03*
X46260000Y-145935000D03*
%TD*%
D20*
%TO.C,C28*%
X37040000Y-81550000D03*
X37040000Y-72750000D03*
%TD*%
D21*
%TO.C,C24*%
X61900000Y-69610000D03*
X61900000Y-71510000D03*
%TD*%
D22*
%TO.C,U8*%
X53932500Y-74747500D03*
X53932500Y-75697500D03*
X53932500Y-76647500D03*
X56207500Y-76647500D03*
X56207500Y-75697500D03*
X56207500Y-74747500D03*
%TD*%
D16*
%TO.C,C29*%
X45245000Y-76120000D03*
X43345000Y-76120000D03*
%TD*%
D23*
%TO.C,R10*%
X38585000Y-111112500D03*
X40410000Y-111112500D03*
%TD*%
D21*
%TO.C,C19*%
X47340000Y-148350000D03*
X47340000Y-150250000D03*
%TD*%
D24*
%TO.C,C23*%
X47120000Y-60390000D03*
X49020000Y-60390000D03*
%TD*%
D22*
%TO.C,U3*%
X44910000Y-140370000D03*
X44910000Y-141320000D03*
X44910000Y-142270000D03*
X47185000Y-142270000D03*
X47185000Y-141320000D03*
X47185000Y-140370000D03*
%TD*%
D24*
%TO.C,C30*%
X47130000Y-62500000D03*
X49030000Y-62500000D03*
%TD*%
D21*
%TO.C,C14*%
X51850000Y-141580000D03*
X51850000Y-143480000D03*
%TD*%
D25*
%TO.C,R1*%
X49250000Y-106592500D03*
X49250000Y-104767500D03*
%TD*%
D12*
%TO.C,C10*%
X46890000Y-104982500D03*
X46890000Y-103082500D03*
%TD*%
D11*
%TO.C,R24*%
X45202500Y-121690000D03*
X43377500Y-121690000D03*
%TD*%
D24*
%TO.C,C26*%
X58332500Y-76217500D03*
X60232500Y-76217500D03*
%TD*%
%TO.C,C25*%
X42970000Y-66670000D03*
X44870000Y-66670000D03*
%TD*%
%TO.C,C1*%
X41250000Y-131590000D03*
X43150000Y-131590000D03*
%TD*%
D17*
%TO.C,R3*%
X42680000Y-140895000D03*
X42680000Y-142720000D03*
%TD*%
D22*
%TO.C,U6*%
X38632500Y-65650000D03*
X38632500Y-66600000D03*
X38632500Y-67550000D03*
X40907500Y-67550000D03*
X40907500Y-66600000D03*
X40907500Y-65650000D03*
%TD*%
D12*
%TO.C,C7*%
X47812500Y-112932500D03*
X47812500Y-111032500D03*
%TD*%
%TO.C,C16*%
X52070000Y-128880000D03*
X52070000Y-126980000D03*
%TD*%
D23*
%TO.C,R4*%
X50817500Y-64670000D03*
X52642500Y-64670000D03*
%TD*%
%TO.C,R22*%
X43302500Y-72040000D03*
X45127500Y-72040000D03*
%TD*%
D25*
%TO.C,R26*%
X54250000Y-139852500D03*
X54250000Y-138027500D03*
%TD*%
D26*
%TO.C,D2*%
X48957500Y-66770000D03*
X47082500Y-66770000D03*
%TD*%
D24*
%TO.C,C6*%
X41230000Y-133910000D03*
X43130000Y-133910000D03*
%TD*%
D23*
%TO.C,R8*%
X34750000Y-65380000D03*
X36575000Y-65380000D03*
%TD*%
D21*
%TO.C,C21*%
X55900000Y-130650000D03*
X55900000Y-132550000D03*
%TD*%
%TO.C,C11*%
X53710000Y-104792500D03*
X53710000Y-106692500D03*
%TD*%
D24*
%TO.C,C31*%
X48810000Y-115010000D03*
X50710000Y-115010000D03*
%TD*%
D27*
%TO.C,D3*%
X49330000Y-75437500D03*
X49330000Y-71437500D03*
%TD*%
D11*
%TO.C,R12*%
X43150000Y-128080000D03*
X41325000Y-128080000D03*
%TD*%
D28*
%TO.C,U9*%
X47845000Y-123173050D03*
X49115000Y-123173050D03*
X50385000Y-123173050D03*
X51655000Y-123173050D03*
X52925000Y-123173050D03*
X54195000Y-123173050D03*
X55465000Y-123173050D03*
X56735000Y-123173050D03*
X56735000Y-117724750D03*
X55465000Y-117724750D03*
X54195000Y-117724750D03*
X52925000Y-117724750D03*
X51655000Y-117724750D03*
X50385000Y-117724750D03*
X49115000Y-117724750D03*
X47845000Y-117724750D03*
%TD*%
D25*
%TO.C,R15*%
X44570000Y-138702500D03*
X44570000Y-136877500D03*
%TD*%
D12*
%TO.C,C18*%
X57180000Y-96540000D03*
X57180000Y-94640000D03*
%TD*%
D25*
%TO.C,R13*%
X49610000Y-143450000D03*
X49610000Y-141625000D03*
%TD*%
D12*
%TO.C,C5*%
X54200000Y-91640000D03*
X54200000Y-89740000D03*
%TD*%
D11*
%TO.C,R20*%
X44830000Y-68780000D03*
X43005000Y-68780000D03*
%TD*%
D26*
%TO.C,D1*%
X48977500Y-64640000D03*
X47102500Y-64640000D03*
%TD*%
D21*
%TO.C,C22*%
X53700000Y-130640000D03*
X53700000Y-132540000D03*
%TD*%
D25*
%TO.C,R11*%
X55060000Y-100315000D03*
X55060000Y-98490000D03*
%TD*%
D17*
%TO.C,R9*%
X53050000Y-98490000D03*
X53050000Y-100315000D03*
%TD*%
D29*
%TO.C,U4*%
X51640000Y-130940000D03*
X50690000Y-130940000D03*
X49740000Y-130940000D03*
X49740000Y-133640000D03*
X50690000Y-133640000D03*
X51640000Y-133640000D03*
%TD*%
D23*
%TO.C,R5*%
X50797500Y-66780000D03*
X52622500Y-66780000D03*
%TD*%
D30*
%TO.C,J1*%
X46200000Y-58240000D03*
X45550000Y-58240000D03*
X44900000Y-58240000D03*
X44250000Y-58240000D03*
X43600000Y-58240000D03*
D31*
X45900000Y-55540000D03*
X43900000Y-55540000D03*
%TD*%
D25*
%TO.C,R18*%
X49400000Y-150195000D03*
X49400000Y-148370000D03*
%TD*%
D23*
%TO.C,R21*%
X43352500Y-74160000D03*
X45177500Y-74160000D03*
%TD*%
D12*
%TO.C,C9*%
X52070000Y-91660000D03*
X52070000Y-89760000D03*
%TD*%
D21*
%TO.C,C12*%
X42700000Y-144270000D03*
X42700000Y-146170000D03*
%TD*%
D16*
%TO.C,C15*%
X44890000Y-115062500D03*
X42990000Y-115062500D03*
%TD*%
D17*
%TO.C,R16*%
X44830000Y-103142500D03*
X44830000Y-104967500D03*
%TD*%
D32*
%TO.C,U7*%
X40890000Y-63960000D03*
X40890000Y-63010000D03*
X40890000Y-62060000D03*
X38615000Y-62060000D03*
X38615000Y-63010000D03*
X38615000Y-63960000D03*
%TD*%
D12*
%TO.C,C8*%
X49170000Y-139490000D03*
X49170000Y-137590000D03*
%TD*%
D24*
%TO.C,C27*%
X39320000Y-85380000D03*
X41220000Y-85380000D03*
%TD*%
D33*
%TO.C,U5*%
X58770000Y-64950000D03*
X58770000Y-66450000D03*
X59910000Y-64950000D03*
X59910000Y-66450000D03*
D34*
X56865000Y-63795000D03*
X56865000Y-65065000D03*
X56865000Y-66335000D03*
X56865000Y-67605000D03*
X61815000Y-67605000D03*
X61815000Y-66335000D03*
X61815000Y-65065000D03*
X61815000Y-63795000D03*
%TD*%
D35*
%TO.C,U1*%
X43264000Y-148371500D03*
D36*
X43215000Y-151108500D03*
X45245000Y-151108500D03*
D35*
X45196000Y-148371500D03*
D37*
X44230000Y-148371500D03*
%TD*%
D21*
%TO.C,C20*%
X57090000Y-98500000D03*
X57090000Y-100400000D03*
%TD*%
D17*
%TO.C,R17*%
X49940000Y-127047500D03*
X49940000Y-128872500D03*
%TD*%
D11*
%TO.C,R19*%
X36502500Y-67590000D03*
X34677500Y-67590000D03*
%TD*%
D21*
%TO.C,C17*%
X50980000Y-98422500D03*
X50980000Y-100322500D03*
%TD*%
D12*
%TO.C,C2*%
X49962500Y-112942500D03*
X49962500Y-111042500D03*
%TD*%
M02*
