M48
; DRILL file KiCad 10.0.3-10.0.3~ubuntu24.04.1 date 2026-07-23T07:45:05
; FORMAT={-:-/ absolute / metric / decimal}
; #@! TF.CreationDate,2026-07-23T07:45:05+02:00
; #@! TF.GenerationSoftware,Kicad,Pcbnew,10.0.3-10.0.3~ubuntu24.04.1
; #@! TF.FileFunction,Plated,1,4,PTH
FMAT,2
METRIC
; #@! TA.AperFunction,Plated,PTH,ViaDrill
T1C0.300
; #@! TA.AperFunction,Plated,PTH,ComponentDrill
T2C0.600
; #@! TA.AperFunction,Plated,PTH,ComponentDrill
T3C0.750
; #@! TA.AperFunction,Plated,PTH,ComponentDrill
T4C0.850
; #@! TA.AperFunction,Plated,PTH,ComponentDrill
T5C1.000
%
G90
G05
T1
X33.633Y-65.338
X37.04Y-69.72
X37.04Y-75.95
X37.04Y-84.36
X37.33Y-86.66
X37.54Y-89.2
X37.56Y-111.13
X38.83Y-134.78
X38.85Y-129.76
X38.85Y-133.65
X40.14Y-131.59
X40.14Y-133.86
X40.25Y-128.09
X41.692Y-115.062
X42.06Y-62.08
X42.21Y-106.082
X42.305Y-76.11
X42.32Y-85.4
X42.67Y-139.81
X43.199Y-151.97
X43.42Y-106.093
X43.59Y-59.815
X43.912Y-141.326
X44.18Y-131.62
X44.2Y-147.36
X44.21Y-133.89
X44.22Y-151.99
X44.84Y-102.123
X45.24Y-152.0
X45.91Y-69.08
X46.205Y-74.16
X46.235Y-72.07
X46.265Y-76.1
X46.28Y-147.02
X46.37Y-121.65
X46.89Y-106.1
X46.93Y-102.087
X47.28Y-151.33
X47.812Y-110.09
X47.89Y-143.61
X49.18Y-136.6
X49.24Y-107.812
X49.25Y-103.642
X49.32Y-77.16
X49.36Y-151.34
X49.59Y-140.51
X49.76Y-115.877
X49.951Y-110.106
X50.06Y-62.52
X50.15Y-60.38
X50.46Y-124.99
X50.47Y-95.43
X50.48Y-94.43
X50.55Y-97.22
X50.79Y-91.67
X50.901Y-129.754
X50.98Y-101.262
X51.04Y-112.942
X51.25Y-55.75
X51.26Y-136.6
X51.31Y-57.24
X51.64Y-107.733
X51.692Y-114.997
X51.77Y-140.53
X52.05Y-126.07
X52.12Y-88.72
X52.22Y-94.61
X52.22Y-95.36
X52.79Y-75.67
X52.88Y-55.78
X52.89Y-57.81
X52.9Y-121.74
X53.03Y-101.292
X53.64Y-94.61
X53.65Y-95.4
X53.69Y-107.742
X53.72Y-133.54
X53.88Y-129.16
X54.18Y-88.68
X54.23Y-121.79
X54.41Y-57.8
X54.57Y-81.19
X54.59Y-67.74
X54.59Y-69.49
X54.808Y-96.961
X55.07Y-101.362
X55.21Y-95.46
X55.22Y-94.46
X55.25Y-71.5
X55.37Y-91.64
X55.47Y-124.65
X55.64Y-63.58
X55.89Y-133.53
X56.73Y-121.66
X57.07Y-101.29
X57.11Y-81.15
X57.12Y-97.49
X57.2Y-93.74
X58.55Y-89.2
X58.6Y-65.69
X58.61Y-66.81
X58.61Y-70.72
X58.61Y-72.27
X58.62Y-64.67
X58.65Y-86.66
X60.05Y-66.79
X60.06Y-64.66
X60.06Y-65.72
X60.23Y-72.25
X61.24Y-76.24
X61.89Y-72.63
X62.47Y-139.97
X63.36Y-63.8
X63.92Y-67.54
X63.92Y-69.54
X63.92Y-71.54
X65.27Y-67.57
X65.27Y-69.54
X65.27Y-71.56
T3
X54.18Y-56.26
X56.18Y-56.26
T4
X42.4Y-58.24
X47.4Y-58.24
T5
X35.0Y-86.66
X35.0Y-89.2
X35.0Y-91.74
X35.0Y-94.28
X35.0Y-96.82
X35.0Y-99.36
X35.0Y-101.9
X35.0Y-104.44
X35.0Y-106.98
X35.0Y-109.52
X35.0Y-112.06
X35.0Y-114.6
X35.0Y-117.14
X35.0Y-119.68
X35.0Y-122.22
X35.0Y-124.76
X35.0Y-127.3
X35.0Y-129.84
X35.0Y-132.38
X35.0Y-134.92
X35.0Y-137.46
X35.0Y-140.0
X44.41Y-82.65
X46.95Y-82.65
X49.49Y-82.65
X52.03Y-82.65
X54.57Y-82.65
X57.11Y-82.65
X60.4Y-86.66
X60.4Y-89.2
X60.4Y-91.74
X60.4Y-94.28
X60.4Y-96.82
X60.4Y-99.36
X60.4Y-101.9
X60.4Y-104.44
X60.4Y-106.98
X60.4Y-109.52
X60.4Y-112.06
X60.4Y-114.6
X60.4Y-117.14
X60.4Y-119.68
X60.4Y-122.22
X60.4Y-124.76
X60.4Y-127.3
X60.4Y-129.84
X60.4Y-132.38
X60.4Y-134.92
X60.4Y-137.46
X60.4Y-140.0
T2
G00X41.4Y-55.89
M15
G01X41.4Y-55.19
M16
G05
G00X48.4Y-55.19
M15
G01X48.4Y-55.89
M16
G05
M30
